# xmcd CD database file
# Copyright (C) 1996 Ti Kan
#
# Track frame offsets:
#	182
#	12040
#	23900
#	38102
#	48722
#	59777
#	70357
#	82357
#	92175
#	101695
#	114455
#	128452
#	140185
#	152175
#	163442
#	175140
#	185867
#	197720
#
# Disc length: 2768 seconds
#
# Revision: 1
# Processed by: cddbd v1.4b41PL1 Copyright (c) Steve Scherf et al.
# Submitted via: EasyCD 2.21 - (C) 1996 Greg Leichner
#
DISCID=130ace12
DTITLE=Tennessee Ernie Ford - 16 Tons of Boogie:  The Best of Tennessee Ernie 
DTITLE=Ford
DYEAR=1900
DGENRE=
TTITLE0=Sixteen Tons
TTITLE1=The Shot Gun Boogie
TTITLE2=Mr. and Mississippi
TTITLE3=Catfish Boogie
TTITLE4=Tennessee Border
TTITLE5=Tailor Made Woman
TTITLE6=Smokey Mountain Boogie
TTITLE7=Anticipation Blues
TTITLE8=Kissin' Bug Boogie
TTITLE9=Stack-O-Lee
TTITLE10=Mule Train
TTITLE11=I'm Hog-Tied Over You
TTITLE12=Oceans of Tears
TTITLE13=Blackberry Boogie
TTITLE14=I Don't Know
TTITLE15=Hey, Mr. Cotton Picker
TTITLE16=I'll Never Be Free
TTITLE17=Rock City Boogie
EXTD=
EXTT0=
EXTT1=
EXTT2=
EXTT3=
EXTT4=
EXTT5=
EXTT6=
EXTT7=
EXTT8=
EXTT9=
EXTT10=
EXTT11=
EXTT12=
EXTT13=
EXTT14=
EXTT15=
EXTT16=
EXTT17=
PLAYORDER=
